<?xml version="1.0" encoding="UTF-8"?>
<svg xmlns="http://www.w3.org/2000/svg" xmlns:xlink="http://www.w3.org/1999/xlink" width="40px" height="40px" viewBox="0 0 40 39" version="1.1">
<g id="surface1">
<path style=" stroke:none;fill-rule:evenodd;fill:rgb(100%,100%,100%);fill-opacity:1;" d="M 19.9375 0 C 8.914062 0 0 8.9375 0 19.996094 C 0 28.835938 5.710938 36.316406 13.636719 38.960938 C 14.625 39.160156 14.988281 38.535156 14.988281 38.003906 C 14.988281 37.539062 14.957031 35.949219 14.957031 34.296875 C 9.410156 35.488281 8.253906 31.914062 8.253906 31.914062 C 7.363281 29.59375 6.042969 29 6.042969 29 C 4.226562 27.773438 6.171875 27.773438 6.171875 27.773438 C 8.1875 27.90625 9.246094 29.828125 9.246094 29.828125 C 11.027344 32.871094 13.898438 32.011719 15.054688 31.480469 C 15.21875 30.1875 15.746094 29.296875 16.308594 28.800781 C 11.882812 28.335938 7.230469 26.617188 7.230469 18.933594 C 7.230469 16.75 8.023438 14.960938 9.277344 13.570312 C 9.078125 13.078125 8.386719 11.023438 9.472656 8.273438 C 9.472656 8.273438 11.15625 7.746094 14.957031 10.328125 C 16.582031 9.890625 18.253906 9.667969 19.9375 9.667969 C 21.625 9.667969 23.34375 9.898438 24.925781 10.328125 C 28.722656 7.746094 30.40625 8.273438 30.40625 8.273438 C 31.496094 11.023438 30.800781 13.078125 30.601562 13.570312 C 31.890625 14.960938 32.648438 16.75 32.648438 18.933594 C 32.648438 26.617188 27.996094 28.304688 23.539062 28.800781 C 24.265625 29.429688 24.890625 30.621094 24.890625 32.507812 C 24.890625 35.1875 24.859375 37.339844 24.859375 38.003906 C 24.859375 38.535156 25.222656 39.160156 26.210938 38.960938 C 34.136719 36.316406 39.847656 28.835938 39.847656 19.996094 C 39.878906 8.9375 30.933594 0 19.9375 0 Z M 19.9375 0 "/>
</g>
</svg>
